<mxfile host="app.diagrams.net" modified="2023-05-20T08:10:02.545Z" agent="Mozilla/5.0 (Macintosh; Intel Mac OS X 10_15_7) AppleWebKit/537.36 (KHTML, like Gecko) Chrome/113.0.0.0 Safari/537.36" etag="zSE345PiJvepgcgExZz9" version="21.3.2" type="github">
  <diagram name="Page-1" id="5biJzV_1ny0zUVJtJUMe">
    <mxGraphModel dx="911" dy="666" grid="1" gridSize="10" guides="1" tooltips="1" connect="1" arrows="1" fold="1" page="1" pageScale="1" pageWidth="850" pageHeight="1100" math="0" shadow="0">
      <root>
        <mxCell id="0" />
        <mxCell id="1" parent="0" />
        <mxCell id="JnwEX3PELXrVTi8Hib8j-1" value="" style="ellipse;whiteSpace=wrap;html=1;" vertex="1" parent="1">
          <mxGeometry x="140" y="270" width="50" height="50" as="geometry" />
        </mxCell>
        <mxCell id="JnwEX3PELXrVTi8Hib8j-2" value="" style="ellipse;whiteSpace=wrap;html=1;" vertex="1" parent="1">
          <mxGeometry x="370" y="170" width="50" height="50" as="geometry" />
        </mxCell>
        <mxCell id="JnwEX3PELXrVTi8Hib8j-6" value="" style="endArrow=classic;html=1;rounded=0;entryX=-0.08;entryY=0.66;entryDx=0;entryDy=0;entryPerimeter=0;" edge="1" parent="1" target="JnwEX3PELXrVTi8Hib8j-2">
          <mxGeometry width="50" height="50" relative="1" as="geometry">
            <mxPoint x="190" y="280" as="sourcePoint" />
            <mxPoint x="240" y="230" as="targetPoint" />
          </mxGeometry>
        </mxCell>
        <mxCell id="JnwEX3PELXrVTi8Hib8j-7" value="A=5" style="text;html=1;strokeColor=none;fillColor=none;align=center;verticalAlign=middle;whiteSpace=wrap;rounded=0;" vertex="1" parent="1">
          <mxGeometry x="230" y="200" width="60" height="30" as="geometry" />
        </mxCell>
        <mxCell id="JnwEX3PELXrVTi8Hib8j-8" value="" style="ellipse;whiteSpace=wrap;html=1;" vertex="1" parent="1">
          <mxGeometry x="370" y="380" width="50" height="50" as="geometry" />
        </mxCell>
        <mxCell id="JnwEX3PELXrVTi8Hib8j-9" value="" style="endArrow=classic;html=1;rounded=0;entryX=0;entryY=0.5;entryDx=0;entryDy=0;" edge="1" parent="1" target="JnwEX3PELXrVTi8Hib8j-8">
          <mxGeometry width="50" height="50" relative="1" as="geometry">
            <mxPoint x="180" y="320" as="sourcePoint" />
            <mxPoint x="230" y="270" as="targetPoint" />
          </mxGeometry>
        </mxCell>
        <mxCell id="JnwEX3PELXrVTi8Hib8j-10" value="B=4" style="text;html=1;strokeColor=none;fillColor=none;align=center;verticalAlign=middle;whiteSpace=wrap;rounded=0;" vertex="1" parent="1">
          <mxGeometry x="240" y="390" width="60" height="30" as="geometry" />
        </mxCell>
        <mxCell id="JnwEX3PELXrVTi8Hib8j-11" value="" style="endArrow=classic;html=1;rounded=0;" edge="1" parent="1">
          <mxGeometry width="50" height="50" relative="1" as="geometry">
            <mxPoint x="423" y="196" as="sourcePoint" />
            <mxPoint x="628" y="196" as="targetPoint" />
          </mxGeometry>
        </mxCell>
        <mxCell id="JnwEX3PELXrVTi8Hib8j-12" value="C=8" style="text;html=1;strokeColor=none;fillColor=none;align=center;verticalAlign=middle;whiteSpace=wrap;rounded=0;" vertex="1" parent="1">
          <mxGeometry x="500" y="160" width="60" height="30" as="geometry" />
        </mxCell>
        <mxCell id="JnwEX3PELXrVTi8Hib8j-13" value="" style="ellipse;whiteSpace=wrap;html=1;" vertex="1" parent="1">
          <mxGeometry x="630" y="170" width="50" height="50" as="geometry" />
        </mxCell>
        <mxCell id="JnwEX3PELXrVTi8Hib8j-16" value="" style="endArrow=classic;html=1;rounded=0;entryX=0;entryY=1;entryDx=0;entryDy=0;" edge="1" parent="1" target="JnwEX3PELXrVTi8Hib8j-13">
          <mxGeometry width="50" height="50" relative="1" as="geometry">
            <mxPoint x="425" y="406" as="sourcePoint" />
            <mxPoint x="630" y="406" as="targetPoint" />
          </mxGeometry>
        </mxCell>
        <mxCell id="JnwEX3PELXrVTi8Hib8j-17" value="D=8" style="text;html=1;strokeColor=none;fillColor=none;align=center;verticalAlign=middle;whiteSpace=wrap;rounded=0;" vertex="1" parent="1">
          <mxGeometry x="490" y="270" width="60" height="30" as="geometry" />
        </mxCell>
        <mxCell id="JnwEX3PELXrVTi8Hib8j-18" value="" style="endArrow=classic;html=1;rounded=0;entryX=0;entryY=1;entryDx=0;entryDy=0;" edge="1" parent="1" target="JnwEX3PELXrVTi8Hib8j-19">
          <mxGeometry width="50" height="50" relative="1" as="geometry">
            <mxPoint x="422" y="408" as="sourcePoint" />
            <mxPoint x="627" y="408" as="targetPoint" />
          </mxGeometry>
        </mxCell>
        <mxCell id="JnwEX3PELXrVTi8Hib8j-19" value="" style="ellipse;whiteSpace=wrap;html=1;" vertex="1" parent="1">
          <mxGeometry x="660" y="340" width="50" height="50" as="geometry" />
        </mxCell>
        <mxCell id="JnwEX3PELXrVTi8Hib8j-21" value="E=8" style="text;html=1;strokeColor=none;fillColor=none;align=center;verticalAlign=middle;whiteSpace=wrap;rounded=0;" vertex="1" parent="1">
          <mxGeometry x="530" y="350" width="60" height="30" as="geometry" />
        </mxCell>
        <mxCell id="JnwEX3PELXrVTi8Hib8j-22" value="" style="ellipse;whiteSpace=wrap;html=1;" vertex="1" parent="1">
          <mxGeometry x="610" y="480" width="50" height="50" as="geometry" />
        </mxCell>
        <mxCell id="JnwEX3PELXrVTi8Hib8j-23" value="F=5" style="text;html=1;strokeColor=none;fillColor=none;align=center;verticalAlign=middle;whiteSpace=wrap;rounded=0;" vertex="1" parent="1">
          <mxGeometry x="530" y="440" width="60" height="30" as="geometry" />
        </mxCell>
        <mxCell id="JnwEX3PELXrVTi8Hib8j-24" value="" style="endArrow=classic;html=1;rounded=0;" edge="1" parent="1">
          <mxGeometry width="50" height="50" relative="1" as="geometry">
            <mxPoint x="420" y="418" as="sourcePoint" />
            <mxPoint x="610" y="500" as="targetPoint" />
          </mxGeometry>
        </mxCell>
        <mxCell id="JnwEX3PELXrVTi8Hib8j-56" value="" style="ellipse;whiteSpace=wrap;html=1;" vertex="1" parent="1">
          <mxGeometry x="900" y="280" width="50" height="50" as="geometry" />
        </mxCell>
        <mxCell id="JnwEX3PELXrVTi8Hib8j-57" value="" style="endArrow=classic;html=1;rounded=0;entryX=-0.02;entryY=0.22;entryDx=0;entryDy=0;entryPerimeter=0;" edge="1" parent="1" target="JnwEX3PELXrVTi8Hib8j-56">
          <mxGeometry width="50" height="50" relative="1" as="geometry">
            <mxPoint x="680" y="200" as="sourcePoint" />
            <mxPoint x="900" y="280" as="targetPoint" />
          </mxGeometry>
        </mxCell>
        <mxCell id="JnwEX3PELXrVTi8Hib8j-58" value="G=8" style="text;html=1;strokeColor=none;fillColor=none;align=center;verticalAlign=middle;whiteSpace=wrap;rounded=0;" vertex="1" parent="1">
          <mxGeometry x="780" y="210" width="60" height="30" as="geometry" />
        </mxCell>
        <mxCell id="JnwEX3PELXrVTi8Hib8j-62" value="" style="endArrow=classic;html=1;rounded=0;entryX=0.5;entryY=1;entryDx=0;entryDy=0;" edge="1" parent="1" target="JnwEX3PELXrVTi8Hib8j-19">
          <mxGeometry width="50" height="50" relative="1" as="geometry">
            <mxPoint x="640" y="480" as="sourcePoint" />
            <mxPoint x="690" y="430" as="targetPoint" />
          </mxGeometry>
        </mxCell>
        <mxCell id="JnwEX3PELXrVTi8Hib8j-63" value="J=12" style="text;html=1;strokeColor=none;fillColor=none;align=center;verticalAlign=middle;whiteSpace=wrap;rounded=0;" vertex="1" parent="1">
          <mxGeometry x="790" y="410" width="60" height="30" as="geometry" />
        </mxCell>
        <mxCell id="JnwEX3PELXrVTi8Hib8j-64" value="" style="endArrow=classic;html=1;rounded=0;" edge="1" parent="1" target="JnwEX3PELXrVTi8Hib8j-56">
          <mxGeometry width="50" height="50" relative="1" as="geometry">
            <mxPoint x="710" y="355" as="sourcePoint" />
            <mxPoint x="955" y="330" as="targetPoint" />
          </mxGeometry>
        </mxCell>
        <mxCell id="JnwEX3PELXrVTi8Hib8j-65" value="H=22" style="text;html=1;strokeColor=none;fillColor=none;align=center;verticalAlign=middle;whiteSpace=wrap;rounded=0;" vertex="1" parent="1">
          <mxGeometry x="760" y="290" width="60" height="30" as="geometry" />
        </mxCell>
        <mxCell id="JnwEX3PELXrVTi8Hib8j-66" value="" style="endArrow=classic;html=1;rounded=0;entryX=0;entryY=1;entryDx=0;entryDy=0;" edge="1" parent="1" target="JnwEX3PELXrVTi8Hib8j-56">
          <mxGeometry width="50" height="50" relative="1" as="geometry">
            <mxPoint x="660" y="503" as="sourcePoint" />
            <mxPoint x="872" y="310" as="targetPoint" />
          </mxGeometry>
        </mxCell>
        <mxCell id="JnwEX3PELXrVTi8Hib8j-70" value="Part1: A-C-G = 5+8+8 = 21" style="text;html=1;strokeColor=none;fillColor=none;align=left;verticalAlign=middle;whiteSpace=wrap;rounded=0;" vertex="1" parent="1">
          <mxGeometry x="430" y="580" width="260" height="30" as="geometry" />
        </mxCell>
        <mxCell id="JnwEX3PELXrVTi8Hib8j-71" value="Part2: B-D-G = 4+8+8 = 20" style="text;html=1;strokeColor=none;fillColor=none;align=left;verticalAlign=middle;whiteSpace=wrap;rounded=0;" vertex="1" parent="1">
          <mxGeometry x="430" y="610" width="260" height="30" as="geometry" />
        </mxCell>
        <mxCell id="JnwEX3PELXrVTi8Hib8j-72" value="Part3: B-E-H = 4+8+22 = 34" style="text;html=1;strokeColor=none;fillColor=none;align=left;verticalAlign=middle;whiteSpace=wrap;rounded=0;fontColor=#b80000;" vertex="1" parent="1">
          <mxGeometry x="430" y="640" width="260" height="30" as="geometry" />
        </mxCell>
        <mxCell id="JnwEX3PELXrVTi8Hib8j-73" value="Part4: B-F-I-H= 4+5+2+22 = 33" style="text;html=1;strokeColor=none;fillColor=none;align=left;verticalAlign=middle;whiteSpace=wrap;rounded=0;" vertex="1" parent="1">
          <mxGeometry x="430" y="670" width="260" height="30" as="geometry" />
        </mxCell>
        <mxCell id="JnwEX3PELXrVTi8Hib8j-74" value="Part5: B-F-J = 4+5+12 = 21" style="text;html=1;strokeColor=none;fillColor=none;align=left;verticalAlign=middle;whiteSpace=wrap;rounded=0;" vertex="1" parent="1">
          <mxGeometry x="429" y="696" width="260" height="30" as="geometry" />
        </mxCell>
        <mxCell id="JnwEX3PELXrVTi8Hib8j-75" value="i=2" style="text;html=1;strokeColor=none;fillColor=none;align=center;verticalAlign=middle;whiteSpace=wrap;rounded=0;" vertex="1" parent="1">
          <mxGeometry x="660" y="420" width="60" height="30" as="geometry" />
        </mxCell>
        <mxCell id="JnwEX3PELXrVTi8Hib8j-77" value="" style="endArrow=none;dashed=1;html=1;rounded=0;fontColor=#f60404;" edge="1" parent="1">
          <mxGeometry width="50" height="50" relative="1" as="geometry">
            <mxPoint x="360" y="390" as="sourcePoint" />
            <mxPoint x="200" y="310" as="targetPoint" />
          </mxGeometry>
        </mxCell>
        <mxCell id="JnwEX3PELXrVTi8Hib8j-78" value="" style="endArrow=none;dashed=1;html=1;rounded=0;fontColor=#f60404;exitX=0;exitY=0.5;exitDx=0;exitDy=0;" edge="1" parent="1" source="JnwEX3PELXrVTi8Hib8j-19">
          <mxGeometry width="50" height="50" relative="1" as="geometry">
            <mxPoint x="630" y="400" as="sourcePoint" />
            <mxPoint x="430" y="390" as="targetPoint" />
          </mxGeometry>
        </mxCell>
        <mxCell id="JnwEX3PELXrVTi8Hib8j-79" value="" style="endArrow=none;dashed=1;html=1;rounded=0;fontColor=#f60404;exitX=0;exitY=0.5;exitDx=0;exitDy=0;" edge="1" parent="1">
          <mxGeometry width="50" height="50" relative="1" as="geometry">
            <mxPoint x="900" y="305" as="sourcePoint" />
            <mxPoint x="720" y="340" as="targetPoint" />
          </mxGeometry>
        </mxCell>
      </root>
    </mxGraphModel>
  </diagram>
</mxfile>
